<?xml version="1.0" encoding="UTF-8"?>
<svg width="80" height="80" viewBox="0 0 80 80" fill="none" xmlns="http://www.w3.org/2000/svg">
  <defs>
    <!-- Gradient for the main circle -->
    <linearGradient id="hikma-gradient" x1="0" y1="0" x2="80" y2="80" gradientUnits="userSpaceOnUse">
      <stop stop-color="#3B82F6"/>
      <stop offset="0.5" stop-color="#8B5CF6"/>
      <stop offset="1" stop-color="#EC4899"/>
    </linearGradient>
    
    <!-- Gradient for the flow lines -->
    <linearGradient id="flow-gradient" x1="0" y1="0" x2="100" y2="0" gradientUnits="userSpaceOnUse">
      <stop stop-color="#60A5FA" stop-opacity="0.8"/>
      <stop offset="0.5" stop-color="#A78BFA" stop-opacity="0.9"/>
      <stop offset="1" stop-color="#F472B6" stop-opacity="0.8"/>
    </linearGradient>
    
    <!-- Glow effect -->
    <filter id="glow">
      <feGaussianBlur stdDeviation="2" result="coloredBlur"/>
      <feMerge> 
        <feMergeNode in="coloredBlur"/>
        <feMergeNode in="SourceGraphic"/>
      </feMerge>
    </filter>
  </defs>
  
  <!-- Main circular background -->
  <circle cx="40" cy="40" r="38" fill="url(#hikma-gradient)" stroke="#ffffff" stroke-width="2"/>
  
  <!-- Stylized "H" for HikmaFlow -->
  <g filter="url(#glow)">
    <!-- Left vertical line of H -->
    <rect x="22" y="20" width="4" height="40" rx="2" fill="#ffffff"/>
    
    <!-- Right vertical line of H -->
    <rect x="54" y="20" width="4" height="40" rx="2" fill="#ffffff"/>
    
    <!-- Horizontal crossbar of H -->
    <rect x="26" y="38" width="28" height="4" rx="2" fill="#ffffff"/>
  </g>
  
  <!-- Flow elements - representing wisdom flowing -->
  <g opacity="0.9">
    <!-- Top flow line -->
    <path d="M15 25 Q25 20, 35 25 T55 25" stroke="url(#flow-gradient)" stroke-width="2" fill="none" stroke-linecap="round"/>
    
    <!-- Middle flow lines -->
    <path d="M12 40 Q22 35, 32 40 T52 40" stroke="url(#flow-gradient)" stroke-width="2" fill="none" stroke-linecap="round"/>
    <path d="M28 40 Q38 45, 48 40 T68 40" stroke="url(#flow-gradient)" stroke-width="2" fill="none" stroke-linecap="round"/>
    
    <!-- Bottom flow line -->
    <path d="M15 55 Q25 60, 35 55 T55 55" stroke="url(#flow-gradient)" stroke-width="2" fill="none" stroke-linecap="round"/>
  </g>
  
  <!-- Wisdom dots - representing knowledge nodes -->
  <g fill="#ffffff" opacity="0.8">
    <circle cx="18" cy="25" r="2"/>
    <circle cx="62" cy="25" r="2"/>
    <circle cx="15" cy="40" r="2"/>
    <circle cx="65" cy="40" r="2"/>
    <circle cx="18" cy="55" r="2"/>
    <circle cx="62" cy="55" r="2"/>
  </g>
  
  <!-- Central AI node -->
  <circle cx="40" cy="40" r="3" fill="#ffffff" opacity="0.9"/>
  <circle cx="40" cy="40" r="1.5" fill="url(#hikma-gradient)"/>
</svg>